<svg width="30" height="24" viewBox="0 0 30 24" fill="none" xmlns="http://www.w3.org/2000/svg">
<path d="M25.0312 12.1406V12.2812L28.3125 9.04688C28.8125 8.48438 29.0625 7.85938 29.0625 7.17188C29.0625 6.48438 28.8125 5.85938 28.3125 5.29688L24.6562 1.64062C24.0938 1.14062 23.4688 0.890625 22.7812 0.890625C22.0938 0.890625 21.4688 1.14062 20.9062 1.64062L19.0312 3.5625C18.9062 3.53125 18.7812 3.51562 18.6562 3.51562H13.4062C12.5312 3.54688 11.7812 3.84375 11.1562 4.40625C10.5312 4.9375 10.1562 5.64062 10.0312 6.51562V12.1406C10.0312 12.6719 10.2188 13.1094 10.5938 13.4531C10.9375 13.8281 11.375 14.0156 11.9062 14.0156C12.4375 14.0156 12.875 13.8281 13.2188 13.4531C13.5938 13.1094 13.7812 12.6719 13.7812 12.1406V8.76562V8.01562H14.5312H20.9062H21.2812C22.3438 8.04688 23.2344 8.40625 23.9531 9.09375C24.6406 9.8125 25 10.7031 25.0312 11.7656V12.1406ZM15.2812 9.51562V12.1406C15.25 13.1094 14.9219 13.9062 14.2969 14.5312C13.6719 15.1562 12.875 15.4844 11.9062 15.5156C10.9375 15.4844 10.1406 15.1562 9.51562 14.5312C8.89062 13.9062 8.5625 13.1094 8.53125 12.1406V6.5625C7.6875 6.71875 6.9375 7.07812 6.28125 7.64062C5.65625 8.20312 5.21875 8.92188 4.96875 9.79688L4.21875 12.4688L0.75 15.8906C0.25 16.4531 0 17.0781 0 17.7656C0 18.4531 0.25 19.0781 0.75 19.6406L4.40625 23.2969C4.96875 23.7969 5.59375 24.0469 6.28125 24.0469C6.96875 24.0469 7.59375 23.7969 8.15625 23.2969L9.89062 21.5156C9.92188 21.5156 9.95312 21.5156 9.98438 21.5156C9.98438 21.5156 10 21.5156 10.0312 21.5156H17.5312C18.1562 21.5156 18.6875 21.2969 19.125 20.8594C19.5312 20.4219 19.75 19.8906 19.7812 19.2656C19.7812 19.0156 19.7344 18.7656 19.6406 18.5156H19.7812C20.4062 18.5156 20.9375 18.2969 21.375 17.8594C21.7812 17.4219 22 16.8906 22.0312 16.2656C22.0312 15.6406 21.8281 15.125 21.4219 14.7188C22.0156 14.5938 22.5156 14.2969 22.9219 13.8281C23.3281 13.3594 23.5312 12.7969 23.5312 12.1406C23.5 11.3906 23.25 10.7656 22.7812 10.2656C22.2812 9.79688 21.6562 9.54688 20.9062 9.51562H15.2812Z" fill="#111827"/>
</svg>
