<svg width="16" height="16" viewBox="0 0 16 16" fill="none" xmlns="http://www.w3.org/2000/svg">
<g clip-path="url(#clip0_36_298)">
<path d="M8 16.3438C9.45833 16.3229 10.7917 15.9688 12 15.2812C13.2083 14.5729 14.1875 13.5938 14.9375 12.3438C15.6458 11.0729 16 9.73958 16 8.34375C16 6.94792 15.6458 5.61458 14.9375 4.34375C14.1875 3.09375 13.2083 2.11458 12 1.40625C10.7917 0.71875 9.45833 0.364583 8 0.34375C6.54167 0.364583 5.20833 0.71875 4 1.40625C2.79167 2.11458 1.8125 3.09375 1.0625 4.34375C0.354167 5.61458 0 6.94792 0 8.34375C0 9.73958 0.354167 11.0729 1.0625 12.3438C1.8125 13.5938 2.79167 14.5729 4 15.2812C5.20833 15.9688 6.54167 16.3229 8 16.3438ZM11.5312 6.875L7.53125 10.875C7.17708 11.1667 6.82292 11.1667 6.46875 10.875L4.46875 8.875C4.17708 8.52083 4.17708 8.16667 4.46875 7.8125C4.82292 7.52083 5.17708 7.52083 5.53125 7.8125L7 9.28125L10.4688 5.8125C10.8229 5.52083 11.1771 5.52083 11.5312 5.8125C11.8229 6.16667 11.8229 6.52083 11.5312 6.875Z" fill="#4F46E5"/>
</g>
<defs>
<clipPath id="clip0_36_298">
<rect width="16" height="16" fill="white"/>
</clipPath>
</defs>
</svg>
