<svg width="16" height="16" viewBox="0 0 16 16" fill="none" xmlns="http://www.w3.org/2000/svg">
<path d="M8 16.3438C9.45833 16.3229 10.7917 15.9688 12 15.2812C13.2083 14.5729 14.1875 13.5938 14.9375 12.3438C15.6458 11.0729 16 9.73958 16 8.34375C16 6.94792 15.6458 5.61458 14.9375 4.34375C14.1875 3.09375 13.2083 2.11458 12 1.40625C10.7917 0.71875 9.45833 0.364583 8 0.34375C6.54167 0.364583 5.20833 0.71875 4 1.40625C2.79167 2.11458 1.8125 3.09375 1.0625 4.34375C0.354167 5.61458 0 6.94792 0 8.34375C0 9.73958 0.354167 11.0729 1.0625 12.3438C1.8125 13.5938 2.79167 14.5729 4 15.2812C5.20833 15.9688 6.54167 16.3229 8 16.3438ZM8 4.34375C8.45833 4.38542 8.70833 4.63542 8.75 5.09375V8.59375C8.70833 9.05208 8.45833 9.30208 8 9.34375C7.54167 9.30208 7.29167 9.05208 7.25 8.59375V5.09375C7.29167 4.63542 7.54167 4.38542 8 4.34375ZM7 11.3438C7 11.0521 7.09375 10.8125 7.28125 10.625C7.46875 10.4375 7.70833 10.3438 8 10.3438C8.29167 10.3438 8.53125 10.4375 8.71875 10.625C8.90625 10.8125 9 11.0521 9 11.3438C9 11.6354 8.90625 11.875 8.71875 12.0625C8.53125 12.25 8.29167 12.3438 8 12.3438C7.70833 12.3438 7.46875 12.25 7.28125 12.0625C7.09375 11.875 7 11.6354 7 11.3438Z" fill="#EF4444"/>
</svg>
