<svg width="24" height="22" viewBox="0 0 24 22" fill="none" xmlns="http://www.w3.org/2000/svg">
<path d="M3 1.51562C3 1.07812 2.85938 0.71875 2.57812 0.4375C2.29688 0.15625 1.9375 0.015625 1.5 0.015625C1.0625 0.015625 0.703125 0.15625 0.421875 0.4375C0.140625 0.71875 0 1.07812 0 1.51562V17.2656C0.03125 18.3281 0.390625 19.2188 1.07812 19.9375C1.79688 20.625 2.6875 20.9844 3.75 21.0156H22.5C22.9375 21.0156 23.2969 20.875 23.5781 20.5938C23.8594 20.3125 24 19.9531 24 19.5156C24 19.0781 23.8594 18.7188 23.5781 18.4375C23.2969 18.1562 22.9375 18.0156 22.5 18.0156H3.75C3.28125 17.9844 3.03125 17.7344 3 17.2656V1.51562ZM22.0781 5.59375C22.3594 5.28125 22.5 4.92188 22.5 4.51562C22.5 4.10938 22.3594 3.75 22.0781 3.4375C21.7656 3.15625 21.4062 3.01562 21 3.01562C20.5938 3.01562 20.2344 3.15625 19.9219 3.4375L15 8.40625L12.3281 5.6875C12.0156 5.40625 11.6562 5.26562 11.25 5.26562C10.8438 5.26562 10.4844 5.40625 10.1719 5.6875L4.92188 10.9375C4.64062 11.25 4.5 11.6094 4.5 12.0156C4.5 12.4219 4.64062 12.7812 4.92188 13.0938C5.23438 13.375 5.59375 13.5156 6 13.5156C6.40625 13.5156 6.76562 13.375 7.07812 13.0938L11.25 8.875L13.9219 11.5938C14.2344 11.875 14.5938 12.0156 15 12.0156C15.4062 12.0156 15.7656 11.875 16.0781 11.5938L22.0781 5.59375Z" fill="#111827"/>
</svg>
