<svg width="40" height="40" viewBox="0 0 40 40" fill="none" xmlns="http://www.w3.org/2000/svg">
<path d="M0 20C0 8.95431 8.95431 0 20 0C31.0457 0 40 8.95431 40 20C40 31.0457 31.0457 40 20 40C8.95431 40 0 31.0457 0 20Z" fill="#4F46E5"/>
<g clip-path="url(#clip0_36_233)">
<path d="M22 12.3438H17C16.7083 12.3438 16.4688 12.4375 16.2812 12.625C16.0938 12.8125 16 13.0521 16 13.3438C16 13.6354 16.0938 13.875 16.2812 14.0625C16.4688 14.25 16.7083 14.3438 17 14.3438V18.5C17 18.875 16.9062 19.2188 16.7188 19.5312L13.3125 25.0312C13.1042 25.3854 13 25.7708 13 26.1875C13.0208 26.7917 13.2292 27.3021 13.625 27.7188C14.0417 28.1146 14.5521 28.3229 15.1562 28.3438H24.8438C25.4479 28.3229 25.9583 28.1146 26.375 27.7188C26.7708 27.3021 26.9792 26.7917 27 26.1875C27 25.7708 26.8958 25.3854 26.6875 25.0312L23.3125 19.5312C23.1042 19.2188 23 18.875 23 18.5V14.3438C23.2917 14.3438 23.5312 14.25 23.7188 14.0625C23.9062 13.875 24 13.6354 24 13.3438C24 13.0521 23.9062 12.8125 23.7188 12.625C23.5312 12.4375 23.2917 12.3438 23 12.3438H22ZM19 18.5V14.3438H21V18.5C21 19.25 21.1979 19.9479 21.5938 20.5938L22.6875 22.3438H17.3438L18.4062 20.5938C18.8021 19.9479 19 19.25 19 18.5Z" fill="white"/>
</g>
<defs>
<clipPath id="clip0_36_233">
<rect width="14" height="16" fill="white" transform="translate(13 12)"/>
</clipPath>
</defs>
</svg>
