<svg width="17" height="24" viewBox="0 0 17 24" fill="none" xmlns="http://www.w3.org/2000/svg">
<path d="M12 18.5156C12.5312 17.0781 13.2969 15.75 14.2969 14.5312C14.2969 14.5 14.2969 14.4844 14.2969 14.4844C14.5469 14.1406 14.7969 13.7969 15.0469 13.4531C15.9844 12.1094 16.4688 10.5469 16.5 8.76562C16.4375 6.42188 15.625 4.48438 14.0625 2.95312C12.5312 1.39062 10.5938 0.578125 8.25 0.515625C5.90625 0.578125 3.96875 1.39062 2.4375 2.95312C0.875 4.48438 0.0625 6.42188 0 8.76562C0.03125 10.5469 0.515625 12.1094 1.45312 13.4531C1.70312 13.7969 1.95312 14.125 2.20312 14.4375C2.20312 14.4688 2.20312 14.4844 2.20312 14.4844C3.20312 15.7031 3.96875 17.0469 4.5 18.5156H12ZM8.25 24.5156C9.3125 24.4844 10.2031 24.125 10.9219 23.4375C11.6094 22.7188 11.9688 21.8281 12 20.7656V20.0156H4.5V20.7656C4.53125 21.8281 4.89062 22.7188 5.57812 23.4375C6.29688 24.125 7.1875 24.4844 8.25 24.5156ZM4.5 8.76562C4.46875 9.23438 4.21875 9.48438 3.75 9.51562C3.28125 9.48438 3.03125 9.23438 3 8.76562C3.03125 7.26562 3.54688 6.03125 4.54688 5.0625C5.51562 4.0625 6.75 3.54688 8.25 3.51562C8.71875 3.54688 8.96875 3.79688 9 4.26562C8.96875 4.73438 8.71875 4.98438 8.25 5.01562C7.1875 5.04688 6.29688 5.40625 5.57812 6.09375C4.89062 6.8125 4.53125 7.70312 4.5 8.76562Z" fill="#111827"/>
</svg>
