<svg width="40" height="40" viewBox="0 0 40 40" fill="none" xmlns="http://www.w3.org/2000/svg">
<path d="M0 20C0 8.95431 8.95431 0 20 0C31.0457 0 40 8.95431 40 20C40 31.0457 31.0457 40 20 40C8.95431 40 0 31.0457 0 20Z" fill="#4F46E5"/>
<g clip-path="url(#clip0_36_215)">
<path d="M24.9063 19.5626L25.2813 19.2188L24.2188 18.1563L22.2813 16.2188L21.2188 15.1563L20.8438 15.5001L20.1563 16.2188L13.9376 22.4376C13.6042 22.7709 13.3647 23.1563 13.2188 23.5938L12.1251 27.3751C12.0417 27.6459 12.1042 27.8855 12.3126 28.0938C12.5209 28.3022 12.7709 28.3751 13.0626 28.3126L16.8126 27.1876C17.2709 27.0626 17.6667 26.8334 18.0001 26.5001L24.2188 20.2813L24.9063 19.5626ZM17.0938 24.8126L16.8126 25.5313C16.6876 25.6355 16.5522 25.7084 16.4063 25.7501L13.9376 26.4688L14.6563 24.0313C14.7188 23.8855 14.7917 23.7501 14.8751 23.6251L15.5938 23.3438V24.3438C15.6147 24.6355 15.7813 24.8022 16.0938 24.8438H17.0938V24.8126ZM23.4376 12.9376L22.9688 13.3751L22.2813 14.0938L21.9063 14.4376L22.9688 15.5001L24.9063 17.4376L25.9688 18.5001L26.3126 18.1563L27.0313 17.4376L27.5001 17.0001C27.8751 16.5834 28.0626 16.1043 28.0626 15.5626C28.0626 15.0418 27.8751 14.573 27.5001 14.1563L26.2501 12.9376C25.8542 12.5418 25.3855 12.3438 24.8438 12.3438C24.323 12.3438 23.8542 12.5418 23.4376 12.9376ZM21.9376 18.1876L17.4376 22.6876C17.2084 22.8751 16.9792 22.8751 16.7501 22.6876C16.5417 22.4376 16.5417 22.198 16.7501 21.9688L21.2501 17.4688C21.4792 17.2813 21.7084 17.2813 21.9376 17.4688C22.1459 17.698 22.1459 17.9376 21.9376 18.1876Z" fill="white"/>
</g>
<defs>
<clipPath id="clip0_36_215">
<rect width="16" height="16" fill="white" transform="translate(12 12)"/>
</clipPath>
</defs>
</svg>
