<svg width="24" height="24" viewBox="0 0 24 24" fill="none" xmlns="http://www.w3.org/2000/svg">
<path d="M18.7031 18.5156C18.1719 17.6094 17.4531 16.8906 16.5469 16.3594C15.6406 15.7969 14.625 15.5156 13.5 15.5156H10.5C9.375 15.5156 8.35938 15.7969 7.45312 16.3594C6.54688 16.8906 5.82812 17.6094 5.29688 18.5156C6.14062 19.4531 7.125 20.1875 8.25 20.7188C9.40625 21.25 10.6562 21.5156 12 21.5156C13.3438 21.5156 14.5938 21.25 15.75 20.7188C16.875 20.1875 17.8594 19.4531 18.7031 18.5156ZM0 12.5156C0.03125 10.3281 0.5625 8.32812 1.59375 6.51562C2.65625 4.70312 4.125 3.23438 6 2.10938C7.90625 1.04688 9.90625 0.515625 12 0.515625C14.0938 0.515625 16.0938 1.04688 18 2.10938C19.875 3.23438 21.3438 4.70312 22.4062 6.51562C23.4375 8.32812 23.9688 10.3281 24 12.5156C23.9688 14.7031 23.4375 16.7031 22.4062 18.5156C21.3438 20.3281 19.875 21.7969 18 22.9219C16.0938 23.9844 14.0938 24.5156 12 24.5156C9.90625 24.5156 7.90625 23.9844 6 22.9219C4.125 21.7969 2.65625 20.3281 1.59375 18.5156C0.5625 16.7031 0.03125 14.7031 0 12.5156ZM12 13.2656C13.2812 13.2344 14.25 12.6719 14.9062 11.5781C15.5312 10.4531 15.5312 9.32812 14.9062 8.20312C14.25 7.10938 13.2812 6.54688 12 6.51562C10.7188 6.54688 9.75 7.10938 9.09375 8.20312C8.46875 9.32812 8.46875 10.4531 9.09375 11.5781C9.75 12.6719 10.7188 13.2344 12 13.2656Z" fill="#111827"/>
</svg>
