<svg width="40" height="40" viewBox="0 0 40 40" fill="none" xmlns="http://www.w3.org/2000/svg">
<path d="M0 20C0 8.95431 8.95431 0 20 0C31.0457 0 40 8.95431 40 20C40 31.0457 31.0457 40 20 40C8.95431 40 0 31.0457 0 20Z" fill="#4F46E5"/>
<g clip-path="url(#clip0_36_245)">
<path d="M17 24.375L16.0312 23.4062C15.7604 23.1146 15.6771 22.7812 15.7812 22.4062C15.8854 22.1146 16.0104 21.7604 16.1562 21.3438H12.8438C12.5521 21.3438 12.3333 21.2188 12.1875 20.9688C12.0625 20.7188 12.0625 20.4688 12.1875 20.2188L13.8438 17.4375C14.2812 16.7292 14.9271 16.3646 15.7812 16.3438H18.3438C18.4271 16.2188 18.5 16.1042 18.5625 16C19.4375 14.75 20.3958 13.8542 21.4375 13.3125C22.4792 12.7708 23.5104 12.4583 24.5312 12.375C25.5521 12.3125 26.4479 12.3542 27.2188 12.5C27.5938 12.6042 27.8333 12.8438 27.9375 13.2188C28.0833 13.9896 28.125 14.8854 28.0625 15.9062C27.9792 16.9271 27.6667 17.9583 27.125 19C26.5833 20.0417 25.6875 21 24.4375 21.875C24.3333 21.9375 24.2188 22.0104 24.0938 22.0938V24.6562C24.0729 25.5104 23.7083 26.1562 23 26.5938L20.2188 28.25C19.9688 28.375 19.7188 28.375 19.4688 28.25C19.2188 28.1042 19.0938 27.8854 19.0938 27.5938V24.25C18.6562 24.3958 18.2812 24.5208 17.9688 24.625C17.5938 24.7292 17.2708 24.6458 17 24.375ZM24.0938 17.5938C24.5729 17.5729 24.9375 17.3646 25.1875 16.9688C25.3958 16.5521 25.3958 16.1354 25.1875 15.7188C24.9375 15.3229 24.5729 15.1146 24.0938 15.0938C23.6146 15.1146 23.25 15.3229 23 15.7188C22.7917 16.1354 22.7917 16.5521 23 16.9688C23.25 17.3646 23.6146 17.5729 24.0938 17.5938Z" fill="white"/>
</g>
<defs>
<clipPath id="clip0_36_245">
<rect width="16" height="16" fill="white" transform="translate(12 12)"/>
</clipPath>
</defs>
</svg>
