<svg width="40" height="40" viewBox="0 0 40 40" fill="none" xmlns="http://www.w3.org/2000/svg">
<path d="M0 20C0 8.95431 8.95431 0 20 0C31.0457 0 40 8.95431 40 20C40 31.0457 31.0457 40 20 40C8.95431 40 0 31.0457 0 20Z" fill="#4F46E5"/>
<g clip-path="url(#clip0_36_200)">
<path d="M25 18.8438C24.9792 20.3021 24.5625 21.5833 23.75 22.6875L27.7188 26.625C27.9062 26.8333 28 27.0729 28 27.3438C28 27.6146 27.9062 27.8542 27.7188 28.0625C27.5104 28.25 27.2708 28.3438 27 28.3438C26.7292 28.3438 26.4896 28.25 26.2812 28.0625L22.3438 24.0938C21.2396 24.9062 19.9583 25.3229 18.5 25.3438C16.6667 25.3021 15.1354 24.6667 13.9062 23.4375C12.6771 22.2083 12.0417 20.6771 12 18.8438C12.0417 17.0104 12.6771 15.4792 13.9062 14.25C15.1354 13.0208 16.6667 12.3854 18.5 12.3438C20.3333 12.3854 21.8646 13.0208 23.0938 14.25C24.3229 15.4792 24.9583 17.0104 25 18.8438ZM18.5 23.3438C19.3125 23.3438 20.0625 23.1458 20.75 22.75C21.4375 22.3542 21.9896 21.8021 22.4062 21.0938C22.8021 20.3854 23 19.6354 23 18.8438C23 18.0521 22.8021 17.3021 22.4062 16.5938C21.9896 15.8854 21.4375 15.3333 20.75 14.9375C20.0625 14.5417 19.3125 14.3438 18.5 14.3438C17.6875 14.3438 16.9375 14.5417 16.25 14.9375C15.5625 15.3333 15.0104 15.8854 14.5938 16.5938C14.1979 17.3021 14 18.0521 14 18.8438C14 19.6354 14.1979 20.3854 14.5938 21.0938C15.0104 21.8021 15.5625 22.3542 16.25 22.75C16.9375 23.1458 17.6875 23.3438 18.5 23.3438Z" fill="white"/>
</g>
<defs>
<clipPath id="clip0_36_200">
<rect width="16" height="16" fill="white" transform="translate(12 12)"/>
</clipPath>
</defs>
</svg>
